<?xml version="1.0" encoding="utf-8"?>
<svg xmlns="http://www.w3.org/2000/svg" xmlns:xlink="http://www.w3.org/1999/xlink" version= "1.1" width="1618px" height="1000px" viewBox="1066 3282 1618 1000">
<g id="layer1">
<g style="fill:rgb(68,197,229); fill-opacity:1.0; stroke-linejoin: miter">
<path d="M1065.999,3280.7905C1065.6785,3280.7905,1065.3712,3280.918,1065.1445,3281.1445C1064.9178,3281.371,1064.7905,3281.6785,1064.7905,3281.999L1064.7915,4282.0C1064.7915,4282.6675,1065.3326,4283.2085,1066.0,4283.2085L2684.001,4283.2095C2684.3215,4283.2095,2684.629,4283.082,2684.8555,4282.8555C2685.082,4282.629,2685.2095,4282.3213,2685.2095,4282.001L2685.2085,3282.0C2685.2085,3281.3325,2684.6675,3280.7915,2684.0,3280.7915L1065.999,3280.7905 Z"/>
</g>
<g style="fill:rgb(255,0,57); fill-opacity:1.0; stroke-linejoin: miter">
<path d="M2043.8816,3464.8801C2043.7324,3464.8801,2043.5845,3464.8801,2043.4348,3464.8801C1997.9854,3464.9739,1957.0425,3481.9453,1925.5664,3513.5493C1910.9454,3528.3557,1903.0204,3539.1768,1887.5514,3565.5325C1887.472,3565.6775,1887.3608,3565.7498,1887.218,3565.7498C1886.2576,3565.7498,1883.8787,3562.4832,1880.0822,3556.112C1861.1416,3523.7402,1832.2765,3496.606,1802.0732,3482.7603C1777.5809,3471.4644,1751.2194,3465.8174,1723.1741,3465.8174C1715.9233,3465.8174,1708.5597,3466.1946,1701.086,3466.95C1655.5225,3471.388,1618.5525,3488.2307,1588.9357,3517.8425C1562.7888,3544.0984,1546.2162,3576.5415,1538.1045,3617.6611C1534.4175,3636.296,1534.2424,3672.3044,1537.7588,3691.2976C1549.3107,3753.6094,1583.584,3814.5105,1649.5511,3889.749C1677.6813,3921.9766,1732.9246,3975.1353,1781.9374,4017.505C1809.4287,4041.2896,1869.8806,4091.084,1886.5465,4103.713C1886.5865,4103.744,1886.6459,4103.7593,1886.7222,4103.7603C1889.4496,4103.7603,1914.7528,4084.5625,1952.136,4054.5312C2069.4114,3959.9155,2154.035,3868.5977,2198.3271,3788.6616C2233.8342,3724.6384,2246.6252,3665.1301,2236.3347,3612.378C2231.3154,3586.8054,2220.2095,3560.506,2206.263,3541.1633C2196.4238,3527.5225,2176.2673,3508.1934,2162.4644,3499.0327C2129.7524,3477.3206,2086.4543,3464.8801,2043.8816,3464.8801 Z"/>
</g>
<g style="fill:rgb(255,255,255); fill-opacity:0.99607843; stroke-linejoin: miter">
<path d="M1692.775,3740.9106L1692.775,3740.911L1607.4171,3706.6245Q1603.743,3726.505,1600.069,3746.3853Q1651.2443,3766.3516,1702.4198,3786.3179L1692.775,3740.9106"/>
</g>
<g style="fill:rgb(255,255,255); fill-opacity:0.99607843; stroke-linejoin: miter">
<path d="M2079.6262,3744.7712L2079.6262,3744.7715L2164.9841,3710.485Q2168.6582,3730.3655,2172.3323,3750.2458Q2121.157,3770.2122,2069.9814,3790.1785L2079.6262,3744.7712"/>
</g>
<g style="fill:rgb(255,255,255); fill-opacity:1.0; stroke-linejoin: miter">
<path d="M1989.8994,3967.1997C1989.8955,3967.1997,1989.9016,3967.1973,1989.9192,3967.1948L1989.9199,3967.1973C1989.9211,3967.1948,1989.9243,3967.1948,1989.9316,3967.1948C1989.9182,3967.1973,1989.9075,3967.1997,1989.9026,3967.1997 Z M1924.4158,3951.7065C1924.4102,3951.705,1924.405,3951.7021,1924.3999,3951.7002L1924.4006,3951.7021C1924.2959,3951.665,1924.2646,3951.644,1924.2764,3951.644C1924.2896,3951.644,1924.3477,3951.663,1924.4207,3951.7065 Z M1981.5864,3940.8926C1981.5879,3940.8926,1981.5879,3940.8926,1981.5879,3940.8926L1981.5864,3940.8936 Z M1945.8525,3998.6973C1952.6504,3998.6387,1959.9897,3996.228,1966.7114,3991.795C1973.0037,3987.6519,1980.55,3980.0786,1986.4429,3972.1162L1986.4451,3972.1128L1986.4482,3972.109L1986.4495,3972.1064C1988.1284,3969.794,1989.6084,3967.808,1990.0818,3967.2026C1990.4895,3967.2358,1991.3291,3967.4072,1992.2751,3967.6948L1992.2751,3967.6958C1994.5398,3968.3862,1997.6619,3968.732,2000.5449,3968.707C2002.4011,3968.691,2004.1958,3968.5195,2005.6267,3968.1729L2005.6313,3968.1714C2010.4453,3966.9727,2013.9478,3964.897,2017.7153,3961.0605C2021.4023,3957.3071,2023.2952,3954.1724,2024.8347,3949.0894L2024.8354,3949.086C2025.5779,3946.583,2025.7227,3945.15,2025.6865,3941.125C2025.6248,3934.0713,2024.1797,3929.8418,2019.7134,3923.4634L2019.7129,3923.4639C2017.4226,3920.19,2012.0059,3914.9492,2008.2856,3912.3481L2008.2844,3912.3457C2000.0391,3906.6113,1989.6057,3903.227,1980.7292,3903.3057C1980.1216,3903.3105,1979.5242,3903.333,1978.9316,3903.3706L1978.9316,3903.3716C1967.6204,3904.105,1959.9414,3909.9702,1956.5679,3920.4302L1956.5667,3920.4346C1955.9661,3922.3296,1955.3528,3924.734,1955.2305,3925.788L1955.231,3925.789L1954.9756,3927.5747C1954.9487,3927.7622,1955.0005,3927.9521,1955.1182,3928.099C1955.2356,3928.2466,1955.4084,3928.3418,1955.5964,3928.3584L1958.3899,3928.604L1958.395,3928.6055C1961.3191,3928.8428,1966.6357,3930.3936,1969.8391,3931.997L1969.8435,3931.9995C1973.6716,3933.8916,1980.2,3938.7632,1981.3914,3940.6035L1981.3999,3940.6177L1981.3999,3940.6187C1981.5171,3940.7886,1981.561,3940.871,1981.5771,3940.9097L1981.581,3940.9111C1981.529,3941.045,1981.2683,3941.3447,1980.2446,3942.295L1980.231,3942.3071C1979.2463,3943.2715,1977.5266,3944.8286,1976.3835,3945.7988L1976.3777,3945.8042L1974.7563,3947.21L1972.825,3945.498C1967.3296,3940.6,1960.5579,3938.0552,1954.1152,3938.1113C1949.9292,3938.15,1945.8779,3939.2837,1942.4182,3941.5933L1942.4141,3941.5952L1942.4126,3941.5967L1942.4045,3941.603C1941.1721,3942.4658,1939.6172,3943.6802,1938.9851,3944.3638L1938.9834,3944.3677C1937.373,3946.1274,1935.189,3950.0352,1934.4458,3952.456C1934.1494,3953.4165,1933.9888,3953.7573,1933.9014,3953.8726L1933.8962,3953.874C1933.8804,3953.871,1933.8608,3953.8677,1933.8364,3953.8599L1933.8203,3953.8574C1931.3818,3953.3667,1926.5405,3952.2534,1924.915,3951.8413L1924.9202,3951.8428C1925.2578,3950.5713,1926.3601,3947.4805,1927.0928,3945.983C1930.3396,3939.4238,1935.3389,3934.456,1941.8301,3931.4038L1941.8301,3931.4048L1945.1118,3929.8643C1945.3342,3929.7593,1945.4846,3929.5444,1945.5054,3929.2974L1945.7151,3926.7764C1946.063,3922.9648,1947.5815,3916.9854,1948.9888,3913.9155L1948.9883,3913.917C1950.854,3909.9097,1952.8713,3907.0918,1956.0779,3903.9824C1961.7961,3898.4702,1968.8306,3895.3208,1977.9587,3894.2085L1977.9631,3894.209C1979.721,3893.9854,1981.3499,3893.751,1981.7383,3893.6323L1981.7383,3893.6333C1981.7527,3893.629,1981.9404,3893.5762,1982.081,3893.434L1982.083,3893.435C1982.3689,3893.1514,1982.2983,3892.7383,1982.2961,3892.7383L1982.2952,3892.7388C1982.2473,3892.314,1981.9182,3891.4834,1981.5823,3890.733L1981.581,3890.734C1979.4609,3886.0645,1978.283,3878.4844,1978.803,3872.8096L1978.803,3872.8076C1979.5654,3864.295,1983.523,3856.8872,1989.7039,3852.2295L1989.7039,3852.2314L1992.2815,3850.31C1992.4963,3850.15,1992.5986,3849.8804,1992.5435,3849.6167L1992.2195,3848.0703L1992.2195,3848.0718C1992.071,3847.2705,1991.8906,3844.4014,1991.867,3841.6191C1991.8206,3836.4285,1992.5139,3833.086,1994.2451,3829.5842L1994.2458,3829.586L1994.9988,3828.1606C1995.1406,3827.8936,1995.0913,3827.564,1994.8757,3827.352L1991.6296,3824.1223L1991.627,3824.1196C1987.0645,3819.6367,1982.459,3817.5645,1976.8206,3817.616C1972.7063,3817.651,1967.7422,3819.3794,1963.8342,3822.1145L1963.8284,3822.1174L1962.0183,3823.4128C1961.8167,3823.5562,1961.708,3823.7964,1961.7351,3824.0437L1962.0315,3826.8687C1962.7776,3834.3552,1960.2781,3843.5225,1955.6145,3850.4614C1953.4858,3853.579,1948.575,3858.4155,1947.117,3859.2495L1947.1118,3859.2524C1946.9128,3858.9692,1946.5898,3858.5044,1946.1741,3857.9077C1945.6377,3857.1357,1944.9915,3856.2065,1944.2683,3855.1753L1941.6226,3851.4L1942.373,3850.8218L1942.3757,3850.8179C1949.8025,3845.0264,1953.7004,3835.5276,1952.4255,3826.3765L1952.4243,3826.37C1951.8369,3822.4653,1950.4585,3818.2827,1948.676,3815.2246L1948.6748,3815.223C1946.8071,3812.04,1942.4194,3807.6482,1939.2705,3805.8684L1939.2705,3805.8696C1938.3428,3805.3123,1937.6304,3804.833,1937.2749,3804.5586L1937.2795,3804.5608C1937.6028,3803.7556,1938.3066,3801.966,1939.0864,3799.9792L1939.0864,3799.9812L1940.6816,3795.9739L1941.4309,3796.3003L1941.4309,3796.3008C1947.4297,3798.9314,1953.6494,3804.657,1957.1653,3810.785L1957.1653,3810.7874C1957.7356,3811.804,1958.3462,3812.7593,1958.6035,3813.0505L1958.6016,3813.0515C1958.5935,3813.0505,1958.8345,3813.3374,1959.186,3813.3328C1959.3232,3813.3328,1959.4443,3813.2864,1959.4507,3813.2837L1959.4507,3813.2864C1959.7974,3813.1663,1961.2034,3812.4622,1962.7358,3811.6804L1962.737,3811.6787C1967.6157,3809.1653,1970.7583,3808.3845,1976.5452,3808.3347C1980.1724,3808.3035,1982.1909,3808.4797,1983.925,3808.9434L1983.9255,3808.9438C1989.1726,3810.3389,1995.2488,3813.8633,1998.7522,3817.6018L2000.3569,3819.3328C2000.4929,3819.4807,2000.6797,3819.5542,2000.8677,3819.5525C2001.02,3819.5515,2001.1724,3819.5005,2001.2986,3819.3982L2004.3,3816.9304L2004.3018,3816.9282C2009.3589,3812.7366,2016.0852,3809.662,2023.1782,3808.2998L2023.179,3808.3015L2023.1821,3808.2998C2024.8992,3807.9688,2026.5149,3807.5903,2026.888,3807.4429L2026.888,3807.4453L2026.888,3807.447C2026.8992,3807.4407,2027.0552,3807.3845,2027.175,3807.261C2027.5486,3806.8816,2027.3406,3806.3816,2027.3208,3806.3306C2027.2363,3806.1133,2027.0908,3805.897,2026.9258,3805.7073L2026.9272,3805.71C2025.6577,3804.1636,2023.6035,3797.4126,2023.179,3792.8767L2023.179,3792.8735L2022.8811,3789.8523C2022.8616,3789.6626,2022.7651,3789.489,2022.6123,3789.3716C2022.4902,3789.2795,2022.3416,3789.2317,2022.19,3789.2327C2022.1528,3789.2327,2022.1143,3789.2354,2022.0774,3789.2432L2020.6846,3789.4873L2020.6846,3789.489C2017.0286,3790.1294,2013.5217,3790.4683,2010.258,3790.4958C2007.1536,3790.5227,2004.2776,3790.2708,2001.7219,3789.74L2001.7188,3789.739C1987.9155,3786.9277,1977.742,3777.861,1972.4966,3763.6536L1972.4958,3763.6516C1971.7542,3761.652,1971.262,3760.4368,1970.6089,3760.008C1970.3992,3759.8708,1970.1655,3759.8013,1969.9202,3759.8032C1969.866,3759.805,1969.8142,3759.8083,1969.7649,3759.8137L1969.7639,3759.8147L1969.7554,3759.8157L1969.7473,3759.8174C1967.9446,3760.0745,1966.1895,3760.212,1964.4854,3760.2258C1958.6321,3760.2769,1953.3372,3758.9058,1948.5308,3756.102L1948.5308,3756.103C1947.1963,3755.3179,1946.405,3754.862,1945.616,3754.8699C1945.1882,3754.8733,1944.8079,3755.008,1944.4314,3755.1604L1944.4221,3755.164C1939.9312,3757.0476,1934.7024,3758.124,1929.8818,3758.165C1928.6377,3758.176,1927.4272,3758.1182,1926.262,3757.9883L1926.2556,3757.9897C1922.4543,3757.601,1917.7084,3756.5298,1915.4556,3755.6145L1915.4498,3755.613L1914.2047,3755.1199C1914.1205,3755.085,1914.0325,3755.0698,1913.9464,3755.0708C1913.7021,3755.0735,1913.4698,3755.206,1913.3474,3755.4294L1911.8234,3758.2295C1909.6128,3762.228,1907.6237,3767.6167,1906.4546,3772.7593L1906.4546,3772.7634C1905.5809,3776.717,1905.475,3778.0154,1905.5305,3784.4353C1905.5841,3790.345,1905.7559,3792.3767,1906.4985,3795.6562C1909.3518,3808.3977,1915.4436,3819.1648,1924.8066,3828.0542L1924.8091,3828.0566L1927.2107,3830.3208L1925.0095,3832.404L1925.0095,3832.405C1919.7227,3837.3887,1914.6919,3844.2852,1911.7615,3850.5938C1902.7737,3869.773,1906.2036,3891.4614,1920.813,3908.5376L1922.4019,3910.416L1920.6182,3913.142C1917.6741,3917.605,1913.8795,3925.7178,1912.2789,3930.9497L1912.2771,3930.955C1911.5533,3933.391,1910.5762,3937.6143,1910.1299,3940.3608L1910.1285,3940.3682C1909.461,3944.7666,1909.3586,3946.4023,1909.6122,3953.016C1909.8218,3959.2769,1910.076,3961.3438,1910.8953,3964.7715L1910.8966,3964.7764C1913.574,3975.5898,1918.0029,3983.626,1924.7639,3989.915L1924.7639,3989.916C1929.7261,3994.5186,1934.2778,3996.9902,1940.2041,3998.1714L1940.2041,3998.1724C1942.0261,3998.541,1943.9182,3998.7144,1945.8525,3998.6973 Z"/>
</g>
<g style="fill:rgb(255,255,255); fill-opacity:1.0; stroke-linejoin: miter">
<path d="M2035.456,3774.1724C2035.4358,3774.1511,2035.4187,3774.1282,2035.4031,3774.1064L2035.4031,3774.1074L2035.4597,3774.1724 Z M1944.3704,3643.1094C1944.3696,3643.1094,1944.3696,3643.1094,1944.3684,3643.1084L1944.3677,3643.1067C1944.334,3643.0818,1944.3208,3643.0667,1944.3208,3643.0647L1944.3228,3643.0657C1944.3284,3643.0676,1944.3489,3643.0833,1944.375,3643.1094 Z M1947.6658,3634.6394C1947.6562,3634.6394,1947.6582,3634.639,1947.677,3634.639C1947.6802,3634.639,1947.6831,3634.639,1947.687,3634.639L1947.6907,3634.6394C1947.6826,3634.6394,1947.675,3634.6394,1947.6699,3634.6394 Z M2055.4832,3811.6528C2057.2148,3811.6377,2058.9304,3811.5115,2060.2886,3811.2725L2060.2886,3811.273C2069.6748,3809.6013,2078.9214,3803.0347,2084.705,3794.0498L2084.708,3794.0457C2088.4727,3788.108,2090.923,3781.368,2092.2607,3773.258L2092.2612,3773.2556C2093.1921,3767.5098,2093.1716,3756.3943,2092.2517,3749.7563L2092.2512,3749.7527C2088.835,3725.9668,2076.498,3709.263,2056.2866,3701.1943L2056.278,3701.1907L2056.2705,3701.188L2056.2698,3701.1892C2054.472,3700.4922,2052.6863,3699.8252,2051.8728,3699.6033L2051.8752,3699.6045C2052.0847,3698.9297,2052.4954,3697.2068,2052.8862,3695.5103L2052.8867,3695.5093C2053.5774,3692.4749,2053.6763,3690.6616,2053.6587,3684.3013L2053.6587,3684.2966C2053.5994,3677.5051,2053.474,3676.304,2052.6072,3673.2705C2051.4287,3669.147,2049.5413,3665.0623,2047.4121,3662.0264L2047.4121,3662.0273C2045.7874,3659.6384,2041.8218,3655.7034,2039.4539,3654.0876L2039.4539,3654.0896C2037.0776,3652.469,2032.6431,3650.5408,2029.321,3649.6614L2029.3188,3649.6628C2026.9817,3649.0537,2023.5686,3648.783,2020.1292,3648.8115C2016.7375,3648.841,2013.2563,3649.166,2010.6553,3649.7815L2010.6477,3649.784C2009.592,3650.0464,2008.6453,3650.2595,2008.0059,3650.4L2008.0027,3650.401C2008.0427,3649.6692,2008.1265,3648.5027,2008.2517,3647.1716L2008.2524,3647.1638C2008.9287,3639.0647,2007.4429,3630.5764,2004.1843,3624.0063L2004.1838,3624.0046C2000.6191,3616.8743,1993.8906,3611.6418,1986.1523,3609.9595L1986.1436,3609.9585C1984.4402,3609.6096,1983.0396,3609.4539,1980.7842,3609.474C1979.8223,3609.483,1978.6943,3609.5225,1977.3289,3609.5935L1977.3308,3609.5962C1971.4832,3609.841,1967.6584,3610.6653,1962.4136,3612.7146L1960.7153,3613.3586L1958.4495,3611.3684L1958.4495,3611.3706C1951.667,3605.3655,1945.2224,3601.7537,1938.0261,3599.9226L1938.0269,3599.925C1936.0364,3599.413,1933.7527,3599.2395,1930.1323,3599.2722L1930.1362,3599.274C1929.9558,3599.2722,1929.7607,3599.274,1929.5852,3599.2744C1924.1311,3599.3232,1921.4585,3599.9448,1916.9185,3602.1677C1907.3738,3606.767,1900.7424,3615.2937,1897.6593,3626.8784C1896.9175,3629.5454,1896.8182,3631.1077,1896.875,3637.6145C1896.8976,3644.6873,1896.9829,3645.5356,1898.0477,3649.3728L1898.0477,3649.3745C1899.4651,3654.5356,1901.7461,3659.8855,1904.376,3664.2185L1904.3766,3664.2212C1906.6263,3667.897,1911.2157,3674.048,1912.8103,3675.5342L1912.8285,3675.5508L1913.3438,3675.996L1911.3444,3678.4878C1904.7993,3686.6074,1900.8632,3695.0056,1899.3307,3704.1409L1899.3302,3704.1445C1898.5084,3709.2385,1898.8555,3717.936,1900.1256,3722.5671L1900.1256,3722.5686C1903.0898,3733.5007,1909.2712,3741.842,1917.734,3746.141C1921.3613,3747.9902,1925.1726,3748.8906,1929.0068,3748.8572C1934.2622,3748.8115,1939.5264,3747.0085,1944.3933,3743.534L1946.3259,3742.1775L1946.9795,3742.6775L1946.9795,3742.6785C1950.096,3745.116,1954.9355,3748.0146,1957.6619,3749.0713L1957.6619,3749.0735C1960.5354,3750.2163,1961.2539,3750.2922,1965.5632,3750.295L1965.5686,3750.2964C1969.8972,3750.254,1970.5315,3750.1729,1972.7212,3749.0735L1972.7212,3749.0762C1976.532,3747.1877,1979.2039,3743.404,1980.2842,3738.6284L1980.2842,3738.6301C1980.9067,3735.9434,1980.8479,3730.0745,1980.1855,3726.7163L1980.1855,3726.7183C1979.9814,3725.5823,1979.8789,3724.5754,1979.8789,3724.2048L1979.8833,3724.2063C1980.166,3723.9277,1981.0459,3723.277,1982.1785,3722.6165L1982.1909,3722.6086C1983.5703,3721.7646,1985.9956,3720.0088,1987.5317,3718.6077L1987.5317,3718.6086C1994.5256,3712.4788,1998.2239,3705.1792,1998.1553,3697.3826C1998.1001,3691.106,1996.3171,3687.0337,1991.6221,3682.3835C1989.1418,3679.9062,1987.9045,3679.0564,1984.7981,3677.6152C1980.9497,3675.8118,1977.4417,3674.718,1974.7207,3674.5393L1974.7219,3674.542L1973.2908,3674.437C1973.272,3674.4358,1973.2532,3674.4343,1973.2346,3674.4343C1972.9429,3674.437,1972.6807,3674.6245,1972.5884,3674.9053L1971.4551,3678.3257L1971.4551,3678.3267C1968.2998,3687.9219,1962.8157,3694.4517,1954.3433,3698.78C1951.9885,3699.983,1948.3765,3701.3467,1946.3613,3701.776L1946.3525,3701.779L1945.7849,3701.9075L1945.2537,3699.5623L1945.2537,3699.5632C1944.9526,3698.1865,1944.5144,3696.331,1944.2146,3695.0623L1944.2146,3695.064C1944.1624,3694.8403,1944.0806,3694.4937,1944.043,3694.3357L1943.6702,3692.7358L1944.6187,3692.4724L1944.6199,3692.4734C1945.5696,3692.2136,1947.5457,3691.3997,1949.0413,3690.7312L1949.0564,3690.7239C1962.0059,3684.5596,1966.8574,3671.1152,1960.8044,3658.4C1960.727,3658.2378,1960.6497,3658.0803,1960.5686,3657.9165L1960.5671,3657.914C1957.6951,3652.2144,1953.4021,3647.968,1947.1763,3644.6675L1947.168,3644.6628C1946.0803,3644.1067,1945.1772,3643.6062,1944.7029,3643.3225L1944.708,3643.324C1945.2825,3641.709,1947.3599,3636.242,1947.9797,3634.6934C1948.3325,3634.7844,1948.9277,3634.983,1949.6658,3635.299L1949.6658,3635.3C1960.3743,3639.9285,1969.4177,3650.4546,1971.864,3661.1719L1971.8652,3661.1733L1972.5503,3664.1504C1972.6145,3664.4343,1972.8499,3664.6453,1973.1377,3664.6812L1975.2334,3664.9333L1975.2366,3664.9348C1984.429,3665.995,1994.3486,3671.1038,1999.866,3677.5398C2002.428,3680.5435,2005.6089,3686.4707,2006.6233,3690.122L2006.6233,3690.1257C2007.5144,3693.2717,2007.8872,3700.761,2007.314,3704.078L2007.314,3704.0789C2005.7969,3712.9834,2000.8147,3721.1306,1993.2468,3726.9507L1993.2468,3726.9539L1991.1289,3728.5593C1990.9565,3728.691,1990.8552,3728.8955,1990.8572,3729.1128L1990.888,3732.6003C1990.9265,3737.0652,1990.1328,3740.6514,1988.1211,3744.9602C1986.7473,3747.8438,1985.9119,3749.0698,1983.2705,3751.796L1983.2681,3751.7986L1980.0044,3755.2004C1979.8252,3755.3865,1979.7659,3755.6587,1979.8501,3755.9026L1981.1233,3759.572C1983.3032,3766.0789,1986.0742,3770.4219,1990.3569,3774.2373L1990.3569,3774.239C1995.4077,3778.73,2002.0002,3780.927,2009.8372,3780.8584C2015.862,3780.8044,2022.6277,3779.4136,2030.023,3776.701L2030.0361,3776.6963L2030.0369,3776.6973C2032.1067,3775.928,2034.241,3775.099,2035.0488,3774.7056C2034.9158,3775.1355,2034.731,3775.6733,2034.5,3776.2603L2034.4924,3776.2788C2032.0422,3783.084,2031.2974,3790.8403,2032.7466,3796.0461L2032.7466,3796.0479C2034.8616,3803.8127,2041.1711,3809.5212,2049.2942,3811.1685L2049.2942,3811.1694C2050.9885,3811.5146,2053.2798,3811.6726,2055.4832,3811.6528 Z"/>
</g>
<g style="fill:rgb(255,255,255); fill-opacity:1.0; stroke-linejoin: miter">
<path d="M2034.7078,3930.0679L2034.8745,3930.0454C2034.9902,3930.0151,2035.5791,3929.8975,2036.221,3929.8164L2036.237,3929.8154C2039.0271,3929.391,2042.4187,3928.2905,2045.5195,3926.7642C2048.2278,3925.461,2049.524,3924.4658,2051.8716,3922.037L2051.872,3922.0376C2056.4092,3917.3774,2058.5552,3912.4824,2059.2827,3905.3647L2059.2827,3905.3657C2060.2656,3895.833,2056.7776,3884.3623,2050.7458,3876.9893L2050.741,3876.9814C2050.232,3876.375,2049.7866,3875.816,2049.4568,3875.3872L2049.46,3875.3896C2050.0696,3875.3247,2050.9119,3875.2534,2051.8623,3875.1875L2051.8628,3875.1885C2056.526,3874.8696,2059.781,3874.0073,2064.2942,3871.8384L2064.2942,3871.8394C2073.0042,3867.6646,2079.1487,3861.5269,2083.4036,3852.7485L2083.4045,3852.7466C2086.4167,3846.4624,2087.151,3843.333,2087.1292,3836.3281L2087.1292,3836.3308C2087.1255,3831.5713,2086.957,3830.143,2086.1711,3827.5L2086.1711,3827.5017C2085.1904,3824.1409,2083.0662,3819.751,2081.0974,3816.9907L2081.0942,3816.9866C2080.4211,3816.0525,2079.7664,3815.146,2079.6143,3814.9226L2079.6143,3814.9246C2079.3784,3814.5737,2078.982,3814.5625,2078.8748,3814.5613L2078.8762,3814.5625C2078.8606,3814.5613,2078.8552,3814.5613,2078.8389,3814.5613C2078.192,3814.5676,2076.8738,3815.0723,2075.4329,3815.763L2075.4329,3815.7634C2068.4404,3819.0083,2063.046,3820.3462,2056.5723,3820.3992C2052.2278,3820.4382,2049.723,3820.1233,2041.5066,3818.4175L2041.5039,3818.417C2037.5273,3817.6108,2034.1035,3817.1985,2030.926,3817.2266C2025.5217,3817.274,2020.8875,3818.5962,2015.5012,3821.3374L2015.5012,3821.3384C2009.0825,3824.5764,2004.604,3828.703,2002.2351,3833.587L2002.2351,3833.5884L2002.2339,3833.5906C2000.9924,3836.1697,2000.9114,3836.6343,2000.9475,3840.7642C2000.9819,3844.6128,2001.1111,3845.4507,2002.1887,3847.9194C2002.8452,3849.442,2004.3286,3851.9907,2005.4895,3853.6016L2005.5015,3853.6182L2005.5024,3853.6191L2005.5024,3853.622C2006.1208,3854.4482,2006.6528,3855.1865,2007.0181,3855.7095L2007.0217,3855.712C2006.8633,3855.7178,2006.6865,3855.7236,2006.4954,3855.724C1998.0234,3855.7998,1990.3293,3862.692,1988.2183,3871.9155C1987.5583,3874.7417,1987.6072,3880.2397,1988.3164,3883.0898L1988.3176,3883.0933C1989.147,3886.3677,1991.4067,3890.6367,1993.6365,3893.1055L1993.6382,3893.1064C1995.3291,3894.9697,1996.2432,3895.56,1999.043,3896.6519L1999.0505,3896.6543C2004.3318,3898.6436,2011.7092,3902.5415,2015.1975,3905.1377L2015.2014,3905.1396C2019.3181,3908.162,2024.384,3913.3335,2027.0454,3917.2686L2027.0496,3917.276C2028.1992,3918.9312,2030.1511,3922.4048,2031.448,3925.016L2031.4492,3925.021C2032.6001,3927.3057,2033.7214,3929.332,2034.1116,3929.7764L2034.1104,3929.7783C2034.1052,3929.7764,2034.342,3930.0703,2034.7078,3930.0679 Z"/>
</g>
<g style="fill:rgb(255,255,255); fill-opacity:1.0; stroke-linejoin: miter">
<path d="M1798.2786,3968.8892C1798.2817,3968.8892,1798.2754,3968.8877,1798.2579,3968.8853L1798.2576,3968.8877C1798.2562,3968.8853,1798.2537,3968.8853,1798.2462,3968.8853C1798.2593,3968.8877,1798.2692,3968.8892,1798.2743,3968.8892 Z M1863.4791,3952.2422C1863.4849,3952.2397,1863.4896,3952.2383,1863.4943,3952.2373L1863.4943,3952.2383C1863.5979,3952.1973,1863.629,3952.1768,1863.6171,3952.1768C1863.6041,3952.1768,1863.5472,3952.1987,1863.4741,3952.2422 Z M1806.1257,3942.4404C1806.1249,3942.4395,1806.1249,3942.4395,1806.1249,3942.4395L1806.1249,3942.4404 Z M1842.8713,3999.6045C1836.0734,3999.666,1828.6934,3997.3867,1821.895,3993.0723C1815.5317,3989.04,1807.8522,3981.6016,1801.8197,3973.7432L1801.8165,3973.7378L1801.8134,3973.7344L1801.8126,3973.7358C1800.0944,3971.4502,1798.5789,3969.4922,1798.0958,3968.8936C1797.6885,3968.9355,1796.8518,3969.1216,1795.9116,3969.4258L1795.9116,3969.4272C1793.6598,3970.1572,1790.5436,3970.5562,1787.66,3970.582C1785.8042,3970.5977,1784.0067,3970.46,1782.5691,3970.1382L1782.5656,3970.1367C1777.73,3969.024,1774.1909,3967.0063,1770.3563,3963.2402C1766.6038,3959.5513,1764.6576,3956.4536,1763.0286,3951.3955L1763.0272,3951.3916C1762.241,3948.9058,1762.0712,3947.4731,1762.0356,3943.4482C1761.9738,3936.396,1763.3451,3932.1416,1767.698,3925.6826L1767.698,3925.6836C1769.9314,3922.3706,1775.2545,3917.0352,1778.9292,3914.3672L1778.9303,3914.3687C1787.0732,3908.4902,1797.4452,3904.921,1806.3218,3904.8438C1806.9299,3904.8389,1807.5267,3904.8496,1808.12,3904.8765L1808.12,3904.8774C1819.4419,3905.4116,1827.2239,3911.1396,1830.7798,3921.54L1830.7809,3921.5444C1831.4147,3923.4282,1832.0709,3925.8223,1832.2102,3926.8735L1832.2102,3926.8755L1832.4974,3928.6533C1832.527,3928.8403,1832.4795,3929.0308,1832.3645,3929.1816C1832.2496,3929.33,1832.0784,3929.4277,1831.8906,3929.4478L1829.1027,3929.7432L1829.0975,3929.745C1826.1774,3930.0322,1820.8898,3931.6768,1817.7151,3933.3374L1817.7113,3933.3389C1813.9175,3935.2979,1807.4749,3940.2852,1806.316,3942.148L1806.3073,3942.1602L1806.3073,3942.1616C1806.1937,3942.3354,1806.1512,3942.4175,1806.1354,3942.4565L1806.132,3942.458C1806.186,3942.5913,1806.452,3942.8862,1807.493,3943.8179L1807.5055,3943.83C1808.5077,3944.7769,1810.2535,3946.3027,1811.4143,3947.252L1811.4199,3947.2554L1813.0657,3948.6318L1814.9667,3946.8872C1820.3752,3941.8955,1827.1,3939.231,1833.5438,3939.1758C1837.7291,3939.1382,1841.8003,3940.2021,1845.3002,3942.4478L1845.3052,3942.4517L1845.3064,3942.4526L1845.3146,3942.458C1846.5615,3943.2983,1848.137,3944.482,1848.7811,3945.1587L1848.7823,3945.1602C1850.4235,3946.891,1852.677,3950.7612,1853.4642,3953.1719C1853.7771,3954.1265,1853.9438,3954.4648,1854.0332,3954.5776L1854.0375,3954.5786C1854.053,3954.5752,1854.0725,3954.5698,1854.0975,3954.5635L1854.1123,3954.561C1856.5426,3954.0254,1861.3643,3952.8281,1862.981,3952.3872L1862.977,3952.3882C1862.6161,3951.1191,1861.4585,3948.0527,1860.7006,3946.5664C1857.3383,3940.0679,1852.2542,3935.187,1845.7085,3932.25L1845.7079,3932.251L1842.4014,3930.769C1842.177,3930.669,1842.0234,3930.4546,1841.9985,3930.209L1841.7435,3927.6929C1841.3284,3923.8877,1839.7043,3917.936,1838.2439,3914.8916L1838.2439,3914.893C1836.3083,3910.918,1834.2407,3908.1367,1830.9816,3905.086C1825.1663,3899.6719,1818.0775,3896.6475,1808.9312,3895.6973L1808.9281,3895.6982C1807.1661,3895.5044,1805.5338,3895.2998,1805.1428,3895.1875L1805.1416,3895.189C1805.1272,3895.1855,1804.9398,3895.1357,1804.7964,3894.995L1804.7946,3894.9966C1804.5035,3894.7173,1804.5671,3894.3052,1804.569,3894.3052L1804.5698,3894.3062C1804.6104,3893.879,1804.9238,3893.0435,1805.2478,3892.2876L1805.2483,3892.2866C1807.2864,3887.582,1808.3293,3879.982,1807.7094,3874.3174L1807.7079,3874.3164C1806.7987,3865.817,1802.714,3858.48,1796.4501,3853.933L1796.4501,3853.9346L1793.8387,3852.06C1793.6206,3851.9023,1793.5134,3851.6343,1793.5646,3851.372L1793.8597,3849.8174L1793.8593,3849.8188C1793.9948,3849.0156,1794.124,3846.143,1794.0996,3843.3608C1794.0553,3838.1733,1793.3035,3834.8425,1791.5109,3831.3696L1791.5109,3831.371L1790.7323,3829.9585C1790.5854,3829.6938,1790.629,3829.3645,1790.8401,3829.1472L1794.0284,3825.865L1794.0315,3825.8623C1798.5162,3821.2993,1803.0829,3819.1455,1808.7228,3819.0962C1812.8375,3819.0603,1817.8295,3820.7012,1821.7853,3823.366L1821.7908,3823.3696L1823.6229,3824.6326C1823.8265,3824.7708,1823.9395,3825.011,1823.9176,3825.2568L1823.6722,3828.0852C1823.0565,3835.587,1825.7163,3844.707,1830.5024,3851.565C1832.6859,3854.645,1837.6805,3859.394,1839.1531,3860.2026L1839.1581,3860.2046C1839.3528,3859.916,1839.6681,3859.4468,1840.0735,3858.8413C1840.5953,3858.0615,1841.226,3857.1196,1841.9304,3856.0776L1844.5084,3852.255L1843.7482,3851.689L1843.7454,3851.687C1836.2166,3846.0264,1832.1527,3836.5984,1833.2675,3827.4248L1833.2686,3827.417C1833.787,3823.5046,1835.0913,3819.2988,1836.8182,3816.2104L1836.8197,3816.209C1838.6317,3812.9922,1842.9412,3808.523,1846.059,3806.687L1846.0585,3806.6892C1846.9768,3806.1155,1847.6805,3805.6252,1848.0315,3805.344L1848.0265,3805.3457C1847.6892,3804.5466,1846.9556,3802.7708,1846.1388,3800.7952L1846.1388,3800.7966L1844.4738,3796.8186L1843.7294,3797.1584L1843.7294,3797.16C1837.7775,3799.897,1831.6608,3805.733,1828.254,3811.921L1828.254,3811.922C1827.7014,3812.9475,1827.107,3813.9148,1826.8547,3814.21L1826.8567,3814.211C1826.8647,3814.21,1826.6293,3814.5005,1826.2778,3814.5032C1826.1396,3814.5056,1826.0181,3814.4622,1826.0118,3814.4595L1826.0118,3814.4622C1825.6641,3814.3457,1824.2454,3813.668,1822.6998,3812.912L1822.6995,3812.9111C1817.7765,3810.486,1814.6213,3809.7598,1808.8337,3809.814C1805.2067,3809.8452,1803.191,3810.0562,1801.4651,3810.5498L1801.4639,3810.5503C1796.2445,3812.0369,1790.2295,3815.6685,1786.7922,3819.4724L1785.2189,3821.2307C1785.0851,3821.3794,1784.8995,3821.4563,1784.7117,3821.458C1784.5599,3821.4604,1784.4064,3821.4116,1784.2783,3821.3108L1781.233,3818.8955L1781.2313,3818.893C1776.1006,3814.7927,1769.3232,3811.8357,1762.2068,3810.6003L1762.2068,3810.6018L1762.2032,3810.5999C1760.4802,3810.2983,1758.8582,3809.9502,1758.483,3809.8093L1758.4822,3809.8103L1758.4822,3809.8113C1758.4717,3809.8066,1758.3148,3809.7515,1758.192,3809.6316C1757.8124,3809.2583,1758.0115,3808.756,1758.0308,3808.7036C1758.1107,3808.4866,1758.2524,3808.2651,1758.4142,3808.076L1758.413,3808.077C1759.6549,3806.5083,1761.59,3799.721,1761.9346,3795.1782L1761.9353,3795.174L1762.1807,3792.1497C1762.1956,3791.9573,1762.2898,3791.7827,1762.4404,3791.6653C1762.5608,3791.569,1762.7089,3791.5176,1762.8591,3791.5166C1762.8973,3791.5166,1762.9354,3791.5186,1762.9736,3791.525L1764.3704,3791.745L1764.3704,3791.7463C1768.0369,3792.3232,1771.5487,3792.5967,1774.8125,3792.5696C1777.917,3792.5415,1780.7886,3792.2395,1783.3348,3791.6626L1783.338,3791.66C1797.0892,3788.6116,1807.0999,3779.3616,1812.0944,3765.0652L1812.0944,3765.0642C1812.8018,3763.0513,1813.2721,3761.8281,1813.9176,3761.3901C1814.1248,3761.2476,1814.3566,3761.1738,1814.6019,3761.1719C1814.6564,3761.1719,1814.7083,3761.1738,1814.7588,3761.179L1814.7593,3761.1816L1814.7675,3761.1802L1814.7749,3761.1816C1816.5828,3761.4077,1818.3403,3761.5127,1820.0448,3761.497C1825.8989,3761.445,1831.1674,3759.9832,1835.9243,3757.0933L1835.9243,3757.0938C1837.2444,3756.2861,1838.029,3755.8157,1838.8182,3755.8096C1839.2454,3755.8054,1839.6282,3755.9343,1840.0072,3756.0786L1840.0166,3756.0828C1844.5404,3757.887,1849.7866,3758.8713,1854.6066,3758.8286C1855.8502,3758.8184,1857.0583,3758.7388,1858.2217,3758.5864L1858.2279,3758.5881C1862.0219,3758.1323,1866.7493,3756.9768,1868.987,3756.0227L1868.9922,3756.0205L1870.228,3755.5054C1870.3121,3755.4707,1870.3994,3755.452,1870.4863,3755.452C1870.7294,3755.4492,1870.9645,3755.5781,1871.0907,3755.8L1872.6637,3758.574C1874.9441,3762.5325,1877.0262,3767.8855,1878.2865,3773.0056L1878.2877,3773.0093C1879.2292,3776.9478,1879.3591,3778.245,1879.4161,3784.664C1879.4683,3790.5737,1879.331,3792.6091,1878.6472,3795.9011C1876.018,3808.6929,1870.1161,3819.5635,1860.911,3828.616L1860.9099,3828.6177L1858.5483,3830.9253L1860.7849,3832.9668L1860.7849,3832.9678C1866.1584,3837.8599,1871.3092,3844.666,1874.3495,3850.9214C1883.6746,3869.9404,1880.628,3891.687,1866.3204,3909.0156L1864.7649,3910.9214L1866.5957,3913.6162C1869.6196,3918.025,1873.5546,3926.0723,1875.2479,3931.2725L1875.2494,3931.2788C1876.0159,3933.7021,1877.0675,3937.9097,1877.562,3940.6475L1877.5634,3940.6533C1878.3076,3945.04,1878.4387,3946.6753,1878.3032,3953.294C1878.2032,3959.5576,1877.9867,3961.6255,1877.2268,3965.0679L1877.2255,3965.0742C1874.7373,3975.9321,1870.45,3984.043,1863.8032,3990.4536L1863.8032,3990.4546C1858.921,3995.1401,1854.4142,3997.6924,1848.5089,3998.9766L1848.5101,3998.9775C1846.6943,3999.38,1844.8063,3999.5884,1842.8713,3999.6045 Z"/>
</g>
<g style="fill:rgb(255,255,255); fill-opacity:1.0; stroke-linejoin: miter">
<path d="M1752.822,3932.5522L1752.6545,3932.5317C1752.5385,3932.5063,1751.9484,3932.397,1751.3058,3932.3271L1751.2883,3932.3262C1748.491,3931.9517,1745.0806,3930.9102,1741.9536,3929.439C1739.2236,3928.1826,1737.9099,3927.211,1735.5198,3924.8232L1735.5198,3924.8242C1730.901,3920.2446,1728.6688,3915.3857,1727.8164,3908.2847L1727.8164,3908.2861C1726.6658,3898.769,1729.9525,3887.2441,1735.8512,3879.7612L1735.8569,3879.755C1736.354,3879.1406,1736.7898,3878.5737,1737.1127,3878.1392L1737.1088,3878.1426C1736.498,3878.088,1735.6545,3878.0303,1734.7041,3877.9814L1734.703,3877.9844C1730.0363,3877.747,1726.7662,3876.9385,1722.2157,3874.851L1722.2157,3874.853C1713.4333,3870.831,1707.1816,3864.8027,1702.7732,3856.0986L1702.7721,3856.0962C1699.6493,3849.8696,1698.8601,3846.7515,1698.7589,3839.747L1698.7589,3839.749C1698.6783,3834.9912,1698.822,3833.5598,1699.5613,3830.9028L1699.5613,3830.905C1700.4828,3827.5293,1702.529,3823.1008,1704.4484,3820.3079L1704.4515,3820.303C1705.1085,3819.3586,1705.7473,3818.4407,1705.8947,3818.2146L1705.8953,3818.2163C1706.1257,3817.8628,1706.5216,3817.8425,1706.6283,3817.8389L1706.6271,3817.8398C1706.6427,3817.8389,1706.6489,3817.8389,1706.6646,3817.8389C1707.3115,3817.8337,1708.6376,3818.3145,1710.0919,3818.9788L1710.0919,3818.9802C1717.1409,3822.1008,1722.5576,3823.3447,1729.0315,3823.2876C1733.3749,3823.2476,1735.8732,3822.889,1744.0592,3821.0396L1744.0629,3821.0386C1748.0248,3820.1628,1751.4395,3819.6897,1754.6172,3819.662C1760.0206,3819.6145,1764.6788,3820.8562,1770.1119,3823.4995L1770.1119,3823.5022C1776.5863,3826.6265,1781.1364,3830.6716,1783.5917,3835.5137L1783.592,3835.5156L1783.5935,3835.5183C1784.8792,3838.0732,1784.9689,3838.538,1785.0046,3842.6665C1785.039,3846.5151,1784.9247,3847.3555,1783.89,3849.8438C1783.2614,3851.378,1781.8239,3853.9517,1780.6906,3855.5845L1780.6792,3855.5996L1780.6787,3855.6016L1780.6787,3855.603C1780.0747,3856.442,1779.5566,3857.188,1779.2,3857.7178L1779.1963,3857.7212C1779.3556,3857.7236,1779.5309,3857.724,1779.7214,3857.7236C1788.1952,3857.6494,1796.0072,3864.4048,1798.2812,3873.5898C1798.9912,3876.4033,1799.0386,3881.9004,1798.3807,3884.7656L1798.3799,3884.7676C1797.6075,3888.0571,1795.4235,3892.3643,1793.2366,3894.8706L1793.2354,3894.8716C1791.5781,3896.7637,1790.6733,3897.3696,1787.8938,3898.5107L1787.8862,3898.5146C1782.6398,3900.5967,1775.3325,3904.6245,1771.8901,3907.2822L1771.8871,3907.2847C1767.8234,3910.3794,1762.8499,3915.6396,1760.2582,3919.6206L1760.2537,3919.627C1759.1323,3921.3022,1757.2429,3924.811,1755.9921,3927.4453L1755.9904,3927.4487C1754.8812,3929.754,1753.796,3931.8003,1753.4127,3932.25L1753.4138,3932.252C1753.4182,3932.25,1753.1877,3932.5498,1752.822,3932.5522 Z"/>
</g>
<g style="fill:rgb(255,255,255); fill-opacity:1.0; stroke-linejoin: miter">
<path d="M1749.3309,3776.693C1749.3497,3776.6719,1749.3671,3776.6494,1749.3822,3776.6245L1749.3822,3776.6267L1749.3265,3776.693 Z M1838.0945,3644.044C1838.0953,3644.044,1838.0964,3644.0432,1838.0973,3644.0432L1838.0984,3644.044C1838.1307,3644.0142,1838.144,3644.0002,1838.144,3643.998L1838.1421,3644.0002C1838.1359,3644.0002,1838.1163,3644.0168,1838.0902,3644.044 Z M1834.6511,3635.6357C1834.6605,3635.6357,1834.658,3635.6348,1834.6399,3635.6348C1834.6361,3635.6348,1834.6329,3635.6348,1834.6299,3635.6348L1834.6248,3635.6357C1834.6342,3635.6357,1834.6418,3635.6357,1834.6466,3635.6357 Z M1729.9651,3814.5193C1728.2341,3814.536,1726.517,3814.4397,1725.1539,3814.2224L1725.1539,3814.2234C1715.7404,3812.7183,1706.3798,3806.314,1700.4373,3797.4324L1700.4341,3797.4292C1696.5659,3791.5603,1693.9966,3784.8652,1692.5173,3776.7795L1692.5168,3776.7769C1691.4839,3771.0486,1691.3123,3759.9353,1692.1127,3753.2825L1692.1134,3753.2793C1695.11,3729.4368,1707.1521,3712.5156,1727.2169,3704.092L1727.2258,3704.0874L1727.2333,3704.0842L1727.2333,3704.0874C1729.0186,3703.3606,1730.793,3702.6594,1731.6035,3702.4226L1731.5996,3702.425C1731.3799,3701.7532,1730.9391,3700.0369,1730.5182,3698.3486L1730.5177,3698.3467C1729.7739,3695.326,1729.643,3693.515,1729.548,3687.1548L1729.548,3687.1506C1729.4879,3680.36,1729.5923,3679.1558,1730.4059,3676.1084C1731.5112,3671.9675,1733.325,3667.847,1735.4025,3664.7715L1735.4025,3664.7747C1736.9846,3662.3594,1740.8807,3658.3557,1743.2192,3656.701L1743.2192,3656.7024C1745.5665,3655.037,1749.9648,3653.0298,1753.2722,3652.0942L1753.2747,3652.0928C1755.6001,3651.443,1759.008,3651.1135,1762.4479,3651.084C1765.8391,3651.0527,1769.3257,3651.3137,1771.9369,3651.8818L1771.9451,3651.8843C1773.0052,3652.1292,1773.9557,3652.3267,1774.597,3652.455L1774.6013,3652.4565C1774.5476,3651.724,1774.444,3650.5605,1774.2948,3649.2314L1774.2933,3649.2249C1773.4755,3641.137,1774.8125,3632.6255,1777.9536,3625.999L1777.9543,3625.998C1781.3934,3618.803,1788.0293,3613.4563,1795.7362,3611.6367L1795.7444,3611.6326C1797.442,3611.2568,1798.8395,3611.077,1801.095,3611.0557C1802.057,3611.0483,1803.186,3611.0696,1804.5527,3611.1155L1804.5497,3611.117C1810.401,3611.2605,1814.2397,3612.016,1819.5199,3613.9705L1821.2288,3614.5874L1823.4604,3612.5583L1823.4604,3612.5593C1830.1361,3606.435,1836.5149,3602.71,1843.6776,3600.7532L1843.6776,3600.7542C1845.6587,3600.209,1847.9392,3599.9954,1851.5599,3599.9626L1851.555,3599.9636C1851.7361,3599.959,1851.9309,3599.9563,1852.1063,3599.9563C1857.5593,3599.9075,1860.2435,3600.4807,1864.821,3602.6238C1874.4463,3607.0557,1881.2249,3615.4636,1884.5125,3626.9917C1885.303,3629.6467,1885.4296,3631.2075,1885.4884,3637.7144C1885.5881,3644.7861,1885.5176,3645.6353,1884.5206,3649.4888L1884.5206,3649.4902C1883.1943,3654.6753,1881.009,3660.0652,1878.4557,3664.4473L1878.4537,3664.45C1876.269,3668.1614,1871.7883,3674.3916,1870.2198,3675.9067L1870.2028,3675.9229L1869.6945,3676.38L1871.7384,3678.834C1878.4237,3686.8381,1882.5093,3695.1648,1884.2008,3704.2717L1884.202,3704.276C1885.1138,3709.3545,1884.9193,3718.0576,1883.7318,3722.7104L1883.7318,3722.7122C1880.9608,3733.6929,1874.9258,3742.1458,1866.5393,3746.5906C1862.9453,3748.504,1859.1509,3749.4712,1855.3163,3749.5063C1850.0614,3749.5527,1844.7659,3747.8416,1839.8398,3744.455L1837.8835,3743.1338L1837.2385,3743.643L1837.2385,3743.6448C1834.1666,3746.138,1829.3762,3749.1228,1826.6705,3750.2258L1826.67,3750.2268C1823.8169,3751.4207,1823.1001,3751.5095,1818.7911,3751.586L1818.7855,3751.5881C1814.4565,3751.6245,1813.821,3751.5518,1811.613,3750.494L1811.613,3750.497C1807.7698,3748.6758,1805.0328,3744.9395,1803.8691,3740.1804L1803.8691,3740.1816C1803.1973,3737.508,1803.154,3731.6357,1803.7578,3728.2668L1803.7578,3728.2688C1803.942,3727.1301,1804.0269,3726.1223,1804.0203,3725.7517L1804.0164,3725.7527C1803.728,3725.4792,1802.8363,3724.8438,1801.6924,3724.2043L1801.6799,3724.1965C1800.2864,3723.379,1797.8298,3721.668,1796.2682,3720.29L1796.2682,3720.2927C1789.1681,3714.285,1785.343,3707.053,1785.2742,3699.2566C1785.2189,3692.9802,1786.9302,3688.8777,1791.5415,3684.1433C1793.9778,3681.625,1795.2006,3680.753,1798.2812,3679.257C1802.0963,3677.385,1805.5848,3676.23,1808.3025,3676.0051L1808.3018,3676.0066L1809.7311,3675.8755C1809.7498,3675.874,1809.7693,3675.8726,1809.7872,3675.8726C1810.0793,3675.8699,1810.3435,3676.054,1810.4423,3676.332L1811.6349,3679.7327L1811.6349,3679.7341C1814.9598,3689.2727,1820.5576,3695.7036,1829.1039,3699.885C1831.479,3701.0447,1835.115,3702.345,1837.1361,3702.7385L1837.1462,3702.7395L1837.7145,3702.8582L1838.2064,3700.5042L1838.2064,3700.5056C1838.4824,3699.1248,1838.8883,3697.2625,1839.1656,3695.9863L1839.1656,3695.9875C1839.215,3695.765,1839.2898,3695.4167,1839.3248,3695.2566L1839.6696,3693.6511L1838.7161,3693.4033L1838.7161,3693.4048C1837.7607,3693.1636,1835.77,3692.383,1834.264,3691.7427L1834.2485,3691.7349C1821.1907,3685.8018,1816.1056,3672.4436,1821.9337,3659.6228C1822.0082,3659.4587,1822.0829,3659.2996,1822.1611,3659.136L1822.1616,3659.1338C1824.9323,3653.3853,1829.1499,3649.0642,1835.3153,3645.6526L1835.3242,3645.6494C1836.4031,3645.072,1837.296,3644.5547,1837.7655,3644.2642L1837.7612,3644.2651C1837.1593,3642.661,1834.985,3637.232,1834.3369,3635.696C1833.9868,3635.7917,1833.3948,3636.0022,1832.6622,3636.33L1832.6622,3636.3318C1822.0381,3641.1472,1813.1808,3651.829,1810.923,3662.5908L1810.923,3662.5913L1810.2893,3665.5803C1810.23,3665.8635,1809.999,3666.0784,1809.7117,3666.1182L1807.6206,3666.4094L1807.6167,3666.4104C1798.4454,3667.6343,1788.6174,3672.9155,1783.2142,3679.4453C1780.705,3682.4941,1777.6296,3688.4807,1776.6799,3692.146L1776.6788,3692.1501C1775.8434,3695.3103,1775.6023,3702.8044,1776.2341,3706.1128L1776.2341,3706.1147C1777.9076,3714.9897,1783.0332,3723.0496,1790.7023,3728.734L1790.7023,3728.735L1792.8478,3730.3047C1793.0231,3730.4336,1793.1274,3730.6367,1793.1294,3730.854L1793.1599,3734.341C1793.2,3738.807,1794.0571,3742.378,1796.1447,3746.649C1797.567,3749.509,1798.4247,3750.7207,1801.114,3753.4L1801.1155,3753.4014L1804.4406,3756.747C1804.6228,3756.9294,1804.6871,3757.2004,1804.6064,3757.4463L1803.399,3761.138C1801.3314,3767.6807,1798.6384,3772.0747,1794.4248,3775.9639L1794.4248,3775.965C1789.4528,3780.5457,1782.8995,3782.8574,1775.0634,3782.926C1769.0377,3782.978,1762.2488,3781.7083,1754.8064,3779.1257L1754.794,3779.1208L1754.7932,3779.122C1752.7102,3778.3887,1750.5615,3777.597,1749.7476,3777.2188C1749.8873,3777.6448,1750.0809,3778.1807,1750.3225,3778.7622L1750.3307,3778.782C1752.9008,3785.5447,1753.7825,3793.2837,1752.4236,3798.516L1752.4236,3798.5176C1750.4462,3806.32,1744.2377,3812.1357,1736.146,3813.9263L1736.1467,3813.9272C1734.4569,3814.302,1732.1698,3814.5005,1729.9651,3814.5193 Z"/>
</g>
<g style="fill:rgb(0,0,0); fill-opacity:0.99607843; stroke-linejoin: miter">
<path d="M2150.118,3491.581L2150.118,3860.4775C2162.1108,3845.0957,2172.8801,3830.0063,2182.3804,3815.2515L2182.4385,3815.2537L2182.4385,3515.2615L2182.497,3515.2642L2182.4385,3515.2578L2182.4934,3515.2615C2175.5312,3508.8088,2168.4087,3502.9766,2162.4644,3499.0327C2158.516,3496.4116,2154.4133,3493.926,2150.1768,3491.581 Z"/>
</g>
<g style="fill:rgb(0,0,0); fill-opacity:0.99607843; stroke-linejoin: miter">
<path d="M2043.4348,3464.8801C2032.9934,3464.9011,2022.7905,3465.8142,2012.885,3467.5903L2012.9417,3467.5923Q2012.9568,3735.3816,2012.9568,4003.1768C2024.0967,3993.3066,2034.854,3983.4893,2045.2197,3973.734L2045.2773,3973.7373Q2045.2773,3719.3125,2045.2773,3464.8901C2045.2148,3464.8884,2045.1531,3464.8865,2045.0913,3464.8865L2045.0974,3464.8884L2044.9956,3464.8823C2044.9651,3464.8823,2044.9343,3464.8823,2044.9031,3464.8838L2044.8965,3464.8865C2044.5583,3464.8801,2044.2202,3464.8801,2043.8816,3464.8801 Z M2044.9463,3464.8855L2044.9463,3464.8875C2044.9495,3464.8855,2044.9519,3464.8855,2044.9551,3464.8855L2044.887,3464.8875C2044.8877,3464.8855,2044.8882,3464.8855,2044.8896,3464.8855 Z"/>
</g>
<g style="fill:rgb(0,0,0); fill-opacity:0.99607843; stroke-linejoin: miter">
<path d="M1908.0569,3533.616C1901.9276,3541.8042,1895.816,3551.4514,1887.5514,3565.5325C1887.472,3565.6775,1887.3608,3565.7498,1887.218,3565.7498C1886.2576,3565.7498,1883.8787,3562.4832,1880.0822,3556.112C1878.7217,3553.7866,1877.3105,3551.4897,1875.8512,3549.2222L1875.7963,3549.2258Q1875.7944,3822.277,1875.7943,4095.3364L1875.8491,4095.3389C1880.2856,4098.871,1883.9484,4101.7446,1886.5465,4103.713C1886.5865,4103.744,1886.6459,4103.7593,1886.7222,4103.7603C1888.15,4103.7603,1895.7642,4098.4995,1908.0593,4089.1782L1908.1147,4089.1802Q1908.1149,3811.395,1908.1149,3533.616 Z"/>
</g>
<g style="fill:rgb(0,0,0); fill-opacity:0.99607843; stroke-linejoin: miter">
<path d="M1738.6323,3466.4067Q1738.6323,3722.6196,1738.6322,3978.832L1738.686,3978.8354C1749.3947,3988.709,1760.2604,3998.5093,1770.9526,4007.9214Q1770.9528,3739.8193,1770.9528,3471.7192L1771.0073,3471.7217L1770.9528,3471.7156L1770.9941,3471.7192C1760.5297,3469.026,1749.748,3467.256,1738.6862,3466.4067 Z"/>
</g>
<g style="fill:rgb(0,0,0); fill-opacity:0.99607843; stroke-linejoin: miter">
<path d="M1633.7361,3485.472C1622.1827,3491.2104,1611.4213,3498.211,1601.4125,3506.4834L1601.4651,3506.487L1601.4689,3829.7495L1601.5212,3829.7527C1611.131,3843.1826,1621.8638,3856.9995,1633.7893,3871.3188L1633.7893,3485.472 Z"/>
</g>
<g style="fill:rgb(83,93,102); fill-opacity:0.99607843; stroke-linejoin: miter">
<path d="M2148.4453,3490.6658Q2148.4453,3676.641,2148.4453,3862.6157C2154.129,3855.3804,2159.544,3848.209,2164.6846,3841.106L2164.743,3841.1099Q2164.7424,3670.874,2164.7424,3500.6445L2164.8088,3500.6475C2164.0098,3500.0754,2163.228,3499.5383,2162.4644,3499.0327C2157.9985,3496.068,2153.336,3493.2769,2148.5032,3490.6658 Z"/>
</g>
<g style="fill:rgb(83,93,102); fill-opacity:0.99607843; stroke-linejoin: miter">
<path d="M2023.2717,3466.0564C2017.749,3466.6995,2012.3086,3467.6028,2006.9612,3468.7612L2007.0181,3468.7654Q2007.031,3738.5813,2007.031,4008.4019C2012.5359,4003.5728,2017.9495,3998.7563,2023.2717,3993.9531L2023.3286,3993.9565Q2023.3286,3730.0059,2023.3286,3466.06L2023.2717,3466.0564 Z"/>
</g>
<g style="fill:rgb(83,93,102); fill-opacity:0.99607843; stroke-linejoin: miter">
<path d="M1868.371,3545.167L1868.371,3604.5503L1868.371,3745.533L1868.3715,3745.5366C1868.3516,3745.5464,1868.3309,3745.5588,1868.311,3745.5713L1868.3663,3745.575L1868.371,3756.2673L1868.3702,3756.27C1868.3502,3756.2737,1868.329,3756.2825,1868.3083,3756.2898L1868.364,3756.2922L1868.371,3819.8816L1868.371,3819.8848C1868.3522,3819.908,1868.3329,3819.9355,1868.3134,3819.9631L1868.3683,3819.9658L1868.371,3841.412L1868.371,3906.398L1868.3715,3906.4023C1868.3522,3906.4248,1868.3329,3906.4507,1868.3134,3906.4756L1868.3683,3906.479L1868.371,3916.5303L1868.3708,3985.288L1868.3713,3985.292C1868.352,3985.3145,1868.3328,3985.3398,1868.3132,3985.3657L1868.3682,3985.3696L1868.3708,4089.3818L1868.4263,4089.3843C1871.0789,4091.5195,1873.5669,4093.5151,1875.8491,4095.3364C1879.306,4098.091,1882.2899,4100.4414,1884.6683,4102.276L1884.669,3563.3413L1884.7214,3563.3438L1884.669,3563.3376L1884.7191,3563.3413C1883.5359,3561.7244,1881.9873,3559.3086,1880.0822,3556.112C1877.906,3552.3926,1875.5989,3548.744,1873.1743,3545.1748L1868.371,3545.167 Z M1875.7401,3668.6697L1875.7676,3668.671L1875.7401,3668.6733L1875.7383,3668.676C1875.7386,3668.6719,1875.7395,3668.671,1875.7401,3668.6697 Z M1875.8506,3684.2795L1875.8231,3684.281L1875.8506,3684.282L1875.795,3684.2856L1875.8231,3684.281L1875.795,3684.2795 Z M1875.8501,3765.335L1875.8319,3765.3376L1875.8319,3765.3396L1875.8501,3765.3376L1875.8225,3765.3413L1875.795,3765.3438L1875.795,3765.3413Q1875.795,3765.339,1875.795,3765.3376L1875.8225,3765.3413L1875.8319,3765.3376L1875.8319,3765.3396L1875.795,3765.335 Z M1875.7395,3806.0088L1875.767,3806.0103L1875.7395,3806.0115L1875.7383,3806.0151C1875.7386,3806.0115,1875.7386,3806.0088,1875.7395,3806.0088 Z M1875.81,3854.269L1875.7944,3854.272L1875.8243,3854.273L1875.8243,3854.2754L1875.8407,3854.272L1875.8407,3854.274L1875.81,3854.269 Z M1875.7386,3893.397L1875.767,3893.399L1875.7386,3893.4004L1875.7375,3893.4048C1875.7383,3893.399,1875.7386,3893.3984,1875.7386,3893.397 Z M1875.7385,3970.5664L1875.7668,3970.5674L1875.7668,3970.5708L1875.74,3970.5684L1875.7374,3970.5728C1875.7382,3970.5684,1875.7385,3970.5664,1875.7385,3970.5664 Z"/>
</g>
<g style="fill:rgb(83,93,102); fill-opacity:0.99607843; stroke-linejoin: miter">
<path d="M1875.8491,3933.3252L1875.8219,3933.3267L1875.8491,3933.3286L1875.7943,3933.331L1875.8354,3933.33L1875.808,3933.3345L1875.8491,3933.331L1875.808,3933.335Q1875.7943,3951.9473,1875.7943,3970.5664Q1875.7943,3951.9453,1875.7943,3933.3281L1875.8068,3933.33L1875.8219,3933.3267L1875.7943,3933.3252 Z"/>
</g>
<g style="fill:rgb(83,93,102); fill-opacity:0.99607843; stroke-linejoin: miter">
<path d="M1875.8225,3854.268L1875.852,3854.272L1875.8407,3854.274L1875.8407,3854.272L1875.8524,3854.273L1875.8243,3854.2754L1875.8243,3854.272L1875.797,3854.2754Q1875.7944,3873.833,1875.7944,3893.397Q1875.7944,3873.832,1875.7944,3854.269L1875.81,3854.2705L1875.81,3854.273L1875.8225,3854.268 Z"/>
</g>
<g style="fill:rgb(83,93,102); fill-opacity:0.99607843; stroke-linejoin: miter">
<path d="M1875.7395,3739.0474C1875.7386,3739.049,1875.7375,3739.05,1875.737,3739.051L1875.7339,3739.0552C1875.7352,3739.05,1875.7356,3739.049,1875.7363,3739.0474 Z"/>
</g>
<g style="fill:rgb(83,93,102); fill-opacity:0.99607843; stroke-linejoin: miter">
<path d="M1875.8506,3610.7473L1875.8325,3610.7495L1875.8325,3610.7527L1875.8506,3610.7495L1875.8231,3610.7537L1875.7957,3610.7573L1875.7957,3610.7537Q1875.7957,3610.7527,1875.7957,3610.7495L1875.8231,3610.7537L1875.8325,3610.7495L1875.8325,3610.7527L1875.7957,3610.7473 Z"/>
</g>
<g style="fill:rgb(83,93,102); fill-opacity:0.99607843; stroke-linejoin: miter">
<path d="M1875.8492,3854.2627L1875.822,3854.2642L1875.8492,3854.2656L1875.7944,3854.269L1875.822,3854.2642L1875.7944,3854.2627 Z"/>
</g>
<g style="fill:rgb(83,93,102); fill-opacity:0.99607843; stroke-linejoin: miter">
<path d="M1875.7401,3739.045L1875.7676,3739.0464L1875.7401,3739.0474L1875.737,3739.051C1875.7383,3739.0474,1875.7386,3739.045,1875.7401,3739.045 Z"/>
</g>
<g style="fill:rgb(83,93,102); fill-opacity:0.99607843; stroke-linejoin: miter">
<path d="M1735.2424,3466.176C1735.2424,3532.453,1735.242,3598.7312,1735.2424,3665.0117L1735.2424,3665.0144C1735.2238,3665.0393,1735.2051,3665.0679,1735.1864,3665.0964L1735.2424,3665.0996C1735.242,3714.763,1735.242,3764.4321,1735.2424,3814.1023L1735.2405,3814.1064C1735.2181,3814.1064,1735.1957,3814.1096,1735.1731,3814.1133L1735.2269,3814.1174C1735.242,3817.0146,1735.242,3819.918,1735.2424,3822.8203L1735.2443,3822.8245C1735.2213,3822.8245,1735.198,3822.8274,1735.175,3822.8315L1735.2288,3822.8352C1735.242,3841.224,1735.2424,3859.6187,1735.2424,3878.0142C1735.2424,3878.8633,1735.242,3879.71,1735.2424,3880.5605L1735.2432,3880.564C1735.2238,3880.5864,1735.2051,3880.6118,1735.1864,3880.6377L1735.24,3880.6401C1735.242,3895.29,1735.242,3909.9448,1735.2424,3924.601L1735.2961,3924.6045C1735.2974,3924.606,1735.2987,3924.607,1735.2993,3924.609L1735.2451,3924.6108C1735.2418,3941.6348,1735.2418,3958.666,1735.2423,3975.6987L1735.296,3975.7026C1736.4243,3976.7441,1737.5538,3977.7896,1738.686,3978.832C1742.955,3982.769,1747.246,3986.6924,1751.5405,3990.582C1751.5394,3816.3352,1751.5394,3642.0886,1751.5403,3467.8418L1751.5718,3467.8445C1747.3372,3467.216,1743.0331,3466.7405,1738.6862,3466.4067C1737.5591,3466.3193,1736.4288,3466.242,1735.2961,3466.176 Z M1738.5781,3813.2495L1738.605,3813.2505L1738.5781,3813.2522L1738.5687,3813.2556C1738.5719,3813.2522,1738.5751,3813.2505,1738.5781,3813.2495 Z"/>
</g>
<g style="fill:rgb(83,93,102); fill-opacity:0.99607843; stroke-linejoin: miter">
<path d="M1751.5718,3467.8418L1751.6412,3467.8445L1751.5945,3467.8418 Z"/>
</g>
<g style="fill:rgb(83,93,102); fill-opacity:0.99607843; stroke-linejoin: miter">
<path d="M1735.4036,3664.7715C1735.4036,3664.7732,1735.4025,3664.7747,1735.4025,3664.7747L1735.4005,3664.7783C1735.401,3664.7747,1735.4016,3664.7732,1735.4025,3664.7715 Z"/>
</g>
<g style="fill:rgb(83,93,102); fill-opacity:0.99607843; stroke-linejoin: miter">
<path d="M1612.5833,3497.9963C1606.931,3501.9314,1601.5001,3506.2307,1596.2819,3510.8955L1596.3342,3510.8977L1596.338,3822.459L1596.3906,3822.4626C1601.4639,3829.7905,1606.8749,3837.231,1612.6356,3844.8027L1612.6356,3497.9963 Z"/>
</g>
<g style="fill:rgb(83,93,102); fill-opacity:0.99607843; stroke-linejoin: miter">
<path d="M1499.9926,3633.0962Q1500.1516,3633.0552,1500.3569,3632.9814 Z"/>
</g>
<g style="fill:rgb(0,0,0); fill-opacity:0.35686275; stroke-linejoin: miter">
<path d="M2258.2104,4173.9927L2254.9634,4174.472Q2231.877,4175.9214,2119.8628,4176.7905Q2007.0743,4177.658,1854.23,4177.494Q1708.36,4177.265,1620.9032,4176.1514Q1592.881,4175.7915,1574.7396,4175.367L1559.4924,4174.9316Q1546.9272,4174.481,1546.7861,4173.9907Q1550.6007,4172.4893,1650.9718,4171.492Q1751.343,4170.495,1902.4979,4170.4565Q2053.653,4170.495,2154.0244,4171.492Q2254.396,4172.49,2258.2104,4173.9927 Z"/>
</g>
<g style="fill:rgb(255,255,255); fill-opacity:0.99607843; stroke-linejoin: miter">
<path d="M2142.6255,3683.6553L2140.1274,3684.7622Q2134.9937,3686.8394,2131.511,3690.5554Q2129.8384,3692.4817,2128.9912,3695.2273L2128.4192,3698.2458Q2128.088,3701.5037,2128.9946,3705.9902L2130.2798,3710.8525Q2132.0527,3716.3518,2134.9004,3722.3066Q2140.9453,3735.065,2150.2988,3748.7515Q2154.8809,3755.4023,2159.7222,3761.1323L2164.5337,3766.4397Q2169.3625,3771.4207,2173.8826,3774.3276L2178.2307,3776.524Q2182.6594,3778.0076,2185.3909,3776.6555Q2185.6875,3776.525,2185.976,3776.3665L2189.2363,3773.3782L2191.8828,3768.543L2193.9373,3762.1628L2195.4229,3754.5396L2196.3618,3745.9753L2196.7766,3736.772L2196.69,3727.2312Q2196.3525,3717.522,2195.102,3708.3455Q2193.8518,3699.1692,2191.7788,3691.7336Q2188.9417,3682.9219,2188.4282,3682.563Q2183.5283,3671.3394,2172.5498,3670.8264Q2163.8015,3670.1658,2142.6255,3683.6553"/>
</g>
<g style="fill:rgb(255,255,255); fill-opacity:0.99607843; stroke-linejoin: miter">
<path d="M1629.7758,3679.7947L1632.2738,3680.9016Q1637.4076,3682.9788,1640.8903,3686.6948Q1642.5629,3688.621,1643.41,3691.3667L1643.982,3694.3853Q1644.3134,3697.643,1643.4066,3702.1296L1642.1215,3706.992Q1640.3485,3712.4912,1637.5009,3718.446Q1631.4559,3731.2043,1622.1024,3744.8909Q1617.5204,3751.5417,1612.6791,3757.2717L1607.8676,3762.579Q1603.0387,3767.56,1598.5187,3770.467L1594.1705,3772.6633Q1589.7418,3774.1472,1587.0104,3772.7952Q1586.7137,3772.6646,1586.4252,3772.506L1583.1649,3769.5178L1580.5184,3764.6826L1578.464,3758.3025L1576.9784,3750.6792L1576.0394,3742.115L1575.6246,3732.9116L1575.7113,3723.3708Q1576.0487,3713.6616,1577.2992,3704.485Q1578.5494,3695.3088,1580.6224,3687.8733Q1583.4596,3679.0615,1583.973,3678.7026Q1588.8729,3667.479,1599.8514,3666.9658Q1608.5997,3666.3052,1629.7758,3679.7947"/>
</g>
</g>
</svg>